<svg xmlns="http://www.w3.org/2000/svg" viewBox="0 0 199 199"><defs><style>.cls-1{fill:#333;}.cls-2{fill:#666;}.cls-3{fill:#1a1a1a;}</style></defs><title>Asset 3</title><g id="Layer_2" data-name="Layer 2"><g id="Layer_1-2" data-name="Layer 1"><path class="cls-1" d="M99.5,199H119a24,24,0,0,0,24-24V142h32a24,24,0,0,0,24-24V81a24,24,0,0,0-24-24H143V24A24,24,0,0,0,119,0H99.5"/><path class="cls-2" d="M99.5,0H82A24,24,0,0,0,58,24V57H24A24,24,0,0,0,0,81v37a24,24,0,0,0,24,24H58v33a24,24,0,0,0,24,24H99.5"/><path d="M99.5,45.66h13.77a4.77,4.77,0,0,0,4.12-7.16L103.62,14.78A4.71,4.71,0,0,0,99.5,12.4"/><path class="cls-3" d="M99.5,12.4a4.71,4.71,0,0,0-4.12,2.38L81.61,38.5a4.77,4.77,0,0,0,4.12,7.16H99.5"/><path d="M99.5,186.13a4.71,4.71,0,0,0,4.12-2.38L117.39,160a4.77,4.77,0,0,0-4.12-7.16H99.5"/><path class="cls-1" d="M99.5,152.87H85.73A4.77,4.77,0,0,0,81.61,160l13.77,23.72a4.71,4.71,0,0,0,4.12,2.38"/><path d="M184,95.38,160.26,81.61a4.76,4.76,0,0,0-7.15,4.12v27.54a4.76,4.76,0,0,0,7.15,4.12L184,103.62A4.77,4.77,0,0,0,184,95.38Z"/><path class="cls-1" d="M15,103.62l23.73,13.77a4.76,4.76,0,0,0,7.15-4.12V85.73a4.76,4.76,0,0,0-7.15-4.12L15,95.38A4.77,4.77,0,0,0,15,103.62Z"/></g></g></svg>