<svg xmlns="http://www.w3.org/2000/svg" viewBox="0 0 199 199"><defs><style>.cls-1{fill:#4d4d4d;}.cls-2{fill:#1a1a1a;}</style></defs><title>Asset 1</title><g id="Layer_2" data-name="Layer 2"><g id="Layer_1-2" data-name="Layer 1"><path class="cls-1" d="M175,57H143V24A24,24,0,0,0,119,0H82A24,24,0,0,0,58,24V57H24A24,24,0,0,0,0,81v37a24,24,0,0,0,24,24H58v33a24,24,0,0,0,24,24h37a24,24,0,0,0,24-24V142h32a24,24,0,0,0,24-24V81A24,24,0,0,0,175,57Z"/><path class="cls-2" d="M95.38,14.78,81.61,38.5a4.77,4.77,0,0,0,4.12,7.16h27.54a4.77,4.77,0,0,0,4.12-7.16L103.62,14.78A4.76,4.76,0,0,0,95.38,14.78Z"/><path class="cls-2" d="M103.62,183.75,117.39,160a4.77,4.77,0,0,0-4.12-7.16H85.73A4.77,4.77,0,0,0,81.61,160l13.77,23.72A4.76,4.76,0,0,0,103.62,183.75Z"/><path class="cls-2" d="M184,95.38,160.26,81.61a4.76,4.76,0,0,0-7.15,4.12v27.54a4.76,4.76,0,0,0,7.15,4.12L184,103.62A4.77,4.77,0,0,0,184,95.38Z"/><path class="cls-2" d="M15,103.62l23.73,13.77a4.76,4.76,0,0,0,7.15-4.12V85.73a4.76,4.76,0,0,0-7.15-4.12L15,95.38A4.77,4.77,0,0,0,15,103.62Z"/></g></g></svg>